# xmcd
#
# Track frame offsets:
#	150
#	14256
#	42229
#	54223
#	73235
#	87813
#	99268
#	112206
#	128574
#	142414
#	152902
#	173392
#
# Disc length: 2553 seconds
#
# Revision: 0
# Processed by: cddbd v1.5.2PL0 Copyright (c) Steve Scherf et al.
# Submitted via: EZCDAudioConverter 1.0.6.1
#
DISCID=9c09f70c
DTITLE=Various Artist - Zydeco - The Language of New Orleans Volume 5
DYEAR=2001
DGENRE=blues
TTITLE0=Sunpie - Long temps passe
TTITLE1=Lil Malcom and the House Rockers - Morning train
TTITLE2=The Creole Connection - What you gonna do by yourself
TTITLE3=The Creole Connection - La valse de mon gran pere
TTITLE4=J. Paul, Jr. and The Zydeco Nubreedz - I don't know what u come 2 do!
TTITLE5=Brad Paul Frank - Justice's two-step
TTITLE6=Jo Jo Reed - Do your line dance
TTITLE7=Step Rideau and the Zydeco Outlaws - Tee black (remix)
TTITLE8=Willis Prudhomme - Hold that tiger
TTITLE9=Zydeco Boneshakers - Show you how to zydeco
TTITLE10=Zydeco Warriors feat. T-Broussard - Party time
TTITLE11=Chubby Carrier and the Bayou Swamp Band - Too hot to handle
EXTD=
EXTT0=
EXTT1=
EXTT2=
EXTT3=
EXTT4=
EXTT5=
EXTT6=
EXTT7=
EXTT8=
EXTT9=
EXTT10=
EXTT11=
PLAYORDER=
